c3dfile
version=1
nRows=13
nColumns=46
inDegrees=yes
endheader
time	ground_force1_vx	ground_force1_vy	ground_force1_vz	ground_force1_px	ground_force1_py	ground_force1_pz	ground_torque1_x	ground_torque1_y	ground_torque1_z	ground_force2_vx	ground_force2_vy	ground_force2_vz	ground_force2_px	ground_force2_py	ground_force2_pz	ground_torque2_x	ground_torque2_y	ground_torque2_z	ground_force3_vx	ground_force3_vy	ground_force3_vz	ground_force3_px	ground_force3_py	ground_force3_pz	ground_torque3_x	ground_torque3_y	ground_torque3_z	ground_force4_vx	ground_force4_vy	ground_force4_vz	ground_force4_px	ground_force4_py	ground_force4_pz	ground_torque4_x	ground_torque4_y	ground_torque4_z	ground_force5_vx	ground_force5_vy	ground_force5_vz	ground_force5_px	ground_force5_py	ground_force5_pz	ground_torque5_x	ground_torque5_y	ground_torque5_z
3.768500	-0.000000	-0.000000	0.000000	0.200000	0.000000	0.940000	0.000000	0.000000	-0.000000	-67.726097	739.698120	71.796867	0.352204	0.000000	0.176566	-0.000001	0.460122	0.000019	-0.000000	-0.000000	0.000000	0.200000	0.000000	-0.300000	0.000000	0.000000	-0.000000	-0.000000	-0.000000	0.000000	0.200000	0.000000	-0.920000	0.000000	0.000000	-0.000000	-0.000000	-0.000000	0.000000	0.200000	0.000000	-1.540000	0.000000	0.000000	-0.000000	
3.769000	-0.000000	-0.000000	0.000000	0.200000	0.000000	0.940000	0.000000	0.000000	-0.000000	-67.323273	738.106750	71.316788	0.352082	0.000000	0.176387	0.000003	0.384363	0.000010	-0.000000	-0.000000	0.000000	0.200000	0.000000	-0.300000	0.000000	0.000000	-0.000000	-0.000000	-0.000000	0.000000	0.200000	0.000000	-0.920000	0.000000	0.000000	-0.000000	-0.000000	-0.000000	0.000000	0.200000	0.000000	-1.540000	0.000000	0.000000	-0.000000	
3.769500	-0.000000	-0.000000	0.000000	0.200000	0.000000	0.940000	0.000000	0.000000	-0.000000	-67.322426	737.628540	70.672279	0.352148	0.000000	0.176002	0.000006	0.477765	0.000014	-0.000000	-0.000000	0.000000	0.200000	0.000000	-0.300000	0.000000	0.000000	-0.000000	-0.000000	-0.000000	0.000000	0.200000	0.000000	-0.920000	0.000000	0.000000	-0.000000	-0.000000	-0.000000	0.000000	0.200000	0.000000	-1.540000	0.000000	0.000000	-0.000000	
3.770000	-0.000000	-0.000000	0.000000	0.200000	0.000000	0.940000	0.000000	0.000000	-0.000000	-67.321579	737.150330	70.027763	0.352214	0.000000	0.175616	0.000005	0.571285	0.000006	-0.000000	-0.000000	0.000000	0.200000	0.000000	-0.300000	0.000000	0.000000	-0.000000	-0.000000	-0.000000	0.000000	0.200000	0.000000	-0.920000	0.000000	0.000000	-0.000000	-0.000000	-0.000000	0.000000	0.200000	0.000000	-1.540000	0.000000	0.000000	-0.000000	
3.770500	-0.000000	-0.000000	0.000000	0.200000	0.000000	0.940000	0.000000	0.000000	-0.000000	-66.921303	736.831665	69.545647	0.352254	0.000000	0.175786	0.000007	0.344907	0.000016	-0.000000	-0.000000	0.000000	0.200000	0.000000	-0.300000	0.000000	0.000000	-0.000000	-0.000000	-0.000000	0.000000	0.200000	0.000000	-0.920000	0.000000	0.000000	-0.000000	-0.000000	-0.000000	0.000000	0.200000	0.000000	-1.540000	0.000000	0.000000	-0.000000	
3.771000	-0.000000	-0.000000	0.000000	0.200000	0.000000	0.940000	0.000000	0.000000	-0.000000	-66.521019	736.512939	69.063530	0.352293	0.000000	0.175957	0.000007	0.118691	0.000018	-0.000000	-0.000000	0.000000	0.200000	0.000000	-0.300000	0.000000	0.000000	-0.000000	-0.000000	-0.000000	0.000000	0.200000	0.000000	-0.920000	0.000000	0.000000	-0.000000	-0.000000	-0.000000	0.000000	0.200000	0.000000	-1.540000	0.000000	0.000000	-0.000000	
3.771500	-0.000000	-0.000000	0.000000	0.200000	0.000000	0.940000	0.000000	0.000000	-0.000000	-66.519753	734.924927	68.339340	0.352362	0.000000	0.175462	0.000006	0.218466	0.000024	-0.000000	-0.000000	0.000000	0.200000	0.000000	-0.300000	0.000000	0.000000	-0.000000	-0.000000	-0.000000	0.000000	0.200000	0.000000	-0.920000	0.000000	0.000000	-0.000000	-0.000000	-0.000000	0.000000	0.200000	0.000000	-1.540000	0.000000	0.000000	-0.000000	
3.772000	-0.000000	-0.000000	0.000000	0.200000	0.000000	0.940000	0.000000	0.000000	-0.000000	-66.518486	733.336914	67.615150	0.352432	0.000000	0.174966	0.000001	0.318463	0.000018	-0.000000	-0.000000	0.000000	0.200000	0.000000	-0.300000	0.000000	0.000000	-0.000000	-0.000000	-0.000000	0.000000	0.200000	0.000000	-0.920000	0.000000	0.000000	-0.000000	-0.000000	-0.000000	0.000000	0.200000	0.000000	-1.540000	0.000000	0.000000	-0.000000	
3.772500	-0.000000	-0.000000	0.000000	0.200000	0.000000	0.940000	0.000000	0.000000	-0.000000	-66.357353	732.699341	67.532936	0.352597	0.000000	0.174898	0.000001	0.384354	-0.000008	-0.000000	-0.000000	0.000000	0.200000	0.000000	-0.300000	0.000000	0.000000	-0.000000	-0.000000	-0.000000	0.000000	0.200000	0.000000	-0.920000	0.000000	0.000000	-0.000000	-0.000000	-0.000000	0.000000	0.200000	0.000000	-1.540000	0.000000	0.000000	-0.000000	
3.773000	-0.000000	-0.000000	0.000000	0.200000	0.000000	0.940000	0.000000	0.000000	-0.000000	-66.196228	732.061707	67.450714	0.352763	0.000000	0.174829	0.000003	0.450236	0.000020	-0.000000	-0.000000	0.000000	0.200000	0.000000	-0.300000	0.000000	0.000000	-0.000000	-0.000000	-0.000000	0.000000	0.200000	0.000000	-0.920000	0.000000	0.000000	-0.000000	-0.000000	-0.000000	0.000000	0.200000	0.000000	-1.540000	0.000000	0.000000	-0.000000	
3.773500	-0.000000	-0.000000	0.000000	0.200000	0.000000	0.940000	0.000000	0.000000	-0.000000	-66.357780	732.061646	67.210670	0.352791	0.000000	0.174996	0.000005	0.336943	-0.000000	-0.000000	-0.000000	0.000000	0.200000	0.000000	-0.300000	0.000000	0.000000	-0.000000	-0.000000	-0.000000	0.000000	0.200000	0.000000	-0.920000	0.000000	0.000000	-0.000000	-0.000000	-0.000000	0.000000	0.200000	0.000000	-1.540000	0.000000	0.000000	-0.000000	
3.774000	-0.000000	-0.000000	0.000000	0.200000	0.000000	0.940000	0.000000	0.000000	-0.000000	-66.519333	732.061584	66.970634	0.352818	0.000000	0.175162	0.000003	0.223607	0.000020	-0.000000	-0.000000	0.000000	0.200000	0.000000	-0.300000	0.000000	0.000000	-0.000000	-0.000000	-0.000000	0.000000	0.200000	0.000000	-0.920000	0.000000	0.000000	-0.000000	-0.000000	-0.000000	0.000000	0.200000	0.000000	-1.540000	0.000000	0.000000	-0.000000	
3.774500	-0.000000	-0.000000	0.000000	0.200000	0.000000	0.940000	0.000000	0.000000	-0.000000	-66.197502	729.837280	65.924698	0.352714	0.000000	0.174703	0.000007	0.207228	0.000003	-0.000000	-0.000000	0.000000	0.200000	0.000000	-0.300000	0.000000	0.000000	-0.000000	-0.000000	-0.000000	0.000000	0.200000	0.000000	-0.920000	0.000000	0.000000	-0.000000	-0.000000	-0.000000	0.000000	0.200000	0.000000	-1.540000	0.000000	0.000000	-0.000000	
